<svg width="40" height="40" viewBox="0 0 40 40" fill="none" xmlns="http://www.w3.org/2000/svg">
    <rect width="40" height="40" rx="4" fill="#2E5459"/>
    <path d="M17.4297 24.044C17.1897 24.044 16.9737 23.96 16.7817 23.792C16.6137 23.6 16.5297 23.384 16.5297 23.144V7.7C16.5297 7.436 16.6137 7.22 16.7817 7.052C16.9737 6.884 17.1897 6.8 17.4297 6.8H21.5697C21.8337 6.8 22.0497 6.884 22.2177 7.052C22.3857 7.22 22.4697 7.436 22.4697 7.7V23.144C22.4697 23.384 22.3857 23.6 22.2177 23.792C22.0497 23.96 21.8337 24.044 21.5697 24.044H17.4297ZM17.2857 32C17.0217 32 16.8057 31.916 16.6377 31.748C16.4697 31.58 16.3857 31.364 16.3857 31.1V26.672C16.3857 26.408 16.4697 26.192 16.6377 26.024C16.8057 25.832 17.0217 25.736 17.2857 25.736H21.7137C21.9537 25.736 22.1577 25.832 22.3257 26.024C22.5177 26.192 22.6137 26.408 22.6137 26.672V31.1C22.6137 31.34 22.5297 31.556 22.3617 31.748C22.1937 31.916 21.9777 32 21.7137 32H17.2857Z" fill="#5EF2C5"/>
</svg>
