<svg width="46" height="47" viewBox="0 0 46 47" fill="none" xmlns="http://www.w3.org/2000/svg">
    <ellipse cx="6.62083" cy="6.65708" rx="5.22727" ry="5.25559" fill="white"/>
    <ellipse cx="39.3786" cy="6.65708" rx="5.22727" ry="5.25559" fill="white"/>
    <ellipse cx="6.62083" cy="39.5921" rx="5.22727" ry="5.25559" fill="white"/>
    <ellipse cx="39.3786" cy="39.5921" rx="5.22727" ry="5.25559" fill="white"/>
    <mask id="mask0"  x="0" y="0" width="46" height="47">
    <ellipse cx="23" cy="23.1246" rx="23" ry="23.1246" fill="#5EF2C5"/>
    </mask>
    <g mask="url(#mask0)">
    <ellipse cx="22.9999" cy="23.1246" rx="29.6444" ry="29.805" fill="#508B93"/>
    </g>
    <path d="M33.688 32.944C33.752 33.072 33.784 33.2107 33.784 33.36C33.784 33.5093 33.7093 33.6587 33.56 33.808C33.432 33.936 33.272 34 33.08 34H26.52C25.8587 34 25.4 33.712 25.144 33.136L22.392 27.024H21.08V33.136C21.08 33.3707 20.9947 33.5733 20.824 33.744C20.6533 33.9147 20.4507 34 20.216 34H13.944C13.7093 34 13.5067 33.9147 13.336 33.744C13.1653 33.5733 13.08 33.3707 13.08 33.136V12.464C13.08 12.2293 13.1653 12.0267 13.336 11.856C13.5067 11.6853 13.7093 11.6 13.944 11.6H23.416C26.488 11.6 28.888 12.2933 30.616 13.68C32.344 15.0453 33.208 17.0187 33.208 19.6C33.208 22.16 32.056 24.176 29.752 25.648L33.688 32.944ZM21.08 17.552V20.944H23.416C23.8853 20.944 24.248 20.7947 24.504 20.496C24.76 20.176 24.888 19.7813 24.888 19.312C24.888 18.8427 24.76 18.4373 24.504 18.096C24.2693 17.7333 23.9067 17.552 23.416 17.552H21.08Z" fill="white"/>
</svg>

