<svg width="120" height="120" viewBox="0 0 120 120" fill="none" xmlns="http://www.w3.org/2000/svg">
<circle cx="60" cy="60" r="60" fill="#5EF2C5" fill-opacity="0.4"/>
<mask id="path-2-inside-1" fill="white">
<path fill-rule="evenodd" clip-rule="evenodd" d="M36.1875 57C37.6755 45.2022 47.815 36 59.9996 36C66.5996 36 71.9996 38.5 76.9996 43L83.9996 36V57H62.9996L71.9996 48C69.2996 44.1 65.0996 42 59.9996 42C51.121 42 43.6902 48.5147 42.2513 57H36.1875Z"/>
</mask>
<path fill-rule="evenodd" clip-rule="evenodd" d="M36.1875 57C37.6755 45.2022 47.815 36 59.9996 36C66.5996 36 71.9996 38.5 76.9996 43L83.9996 36V57H62.9996L71.9996 48C69.2996 44.1 65.0996 42 59.9996 42C51.121 42 43.6902 48.5147 42.2513 57H36.1875Z" fill="white"/>
<path d="M36.1875 57L35.6914 56.9374L35.6205 57.5H36.1875V57ZM76.9996 43L76.6651 43.3716L77.0177 43.689L77.3531 43.3536L76.9996 43ZM83.9996 36H84.4996V34.7929L83.646 35.6464L83.9996 36ZM83.9996 57V57.5H84.4996V57H83.9996ZM62.9996 57L62.646 56.6464L61.7925 57.5H62.9996V57ZM71.9996 48L72.3531 48.3536L72.6482 48.0585L72.4107 47.7154L71.9996 48ZM42.2513 57V57.5H42.6737L42.7443 57.0836L42.2513 57ZM59.9996 35.5C47.5592 35.5 37.2104 44.8935 35.6914 56.9374L36.6836 57.0626C38.1405 45.5109 48.0709 36.5 59.9996 36.5V35.5ZM77.3341 42.6284C72.2615 38.063 66.7467 35.5 59.9996 35.5V36.5C66.4524 36.5 71.7376 38.937 76.6651 43.3716L77.3341 42.6284ZM83.646 35.6464L76.646 42.6464L77.3531 43.3536L84.3531 36.3536L83.646 35.6464ZM84.4996 57V36H83.4996V57H84.4996ZM62.9996 57.5H83.9996V56.5H62.9996V57.5ZM71.646 47.6464L62.646 56.6464L63.3531 57.3535L72.3531 48.3536L71.646 47.6464ZM59.9996 42.5C64.95 42.5 68.9898 44.531 71.5885 48.2846L72.4107 47.7154C69.6093 43.669 65.2491 41.5 59.9996 41.5V42.5ZM42.7443 57.0836C44.1432 48.8339 51.3699 42.5 59.9996 42.5V41.5C50.8722 41.5 43.2372 48.1956 41.7584 56.9164L42.7443 57.0836ZM36.1875 57.5H42.2513V56.5H36.1875V57.5Z" fill="#5EF2C5" mask="url(#path-2-inside-1)"/>
<mask id="path-4-inside-2" fill="white">
<path fill-rule="evenodd" clip-rule="evenodd" d="M83.8125 63C82.3245 74.7978 72.185 84 60.0004 84C53.4004 84 48.0004 81.5 43.0004 77L36.0004 84L36.0004 63L57.0004 63L48.0004 72C50.7004 75.9 54.9004 78 60.0004 78C68.879 78 76.3098 71.4853 77.7487 63L83.8125 63Z"/>
</mask>
<path fill-rule="evenodd" clip-rule="evenodd" d="M83.8125 63C82.3245 74.7978 72.185 84 60.0004 84C53.4004 84 48.0004 81.5 43.0004 77L36.0004 84L36.0004 63L57.0004 63L48.0004 72C50.7004 75.9 54.9004 78 60.0004 78C68.879 78 76.3098 71.4853 77.7487 63L83.8125 63Z" fill="white"/>
<path d="M83.8125 63L84.3086 63.0626L84.3795 62.5L83.8125 62.5L83.8125 63ZM43.0004 77L43.3349 76.6283L42.9823 76.311L42.6469 76.6464L43.0004 77ZM36.0004 84L35.5004 84L35.5004 85.2071L36.354 84.3535L36.0004 84ZM36.0004 63L36.0004 62.5L35.5004 62.5L35.5004 63L36.0004 63ZM57.0004 63L57.354 63.3536L58.2075 62.5L57.0004 62.5L57.0004 63ZM48.0004 72L47.6469 71.6464L47.3518 71.9415L47.5893 72.2846L48.0004 72ZM77.7487 63L77.7487 62.5L77.3263 62.5L77.2557 62.9164L77.7487 63ZM60.0004 84.5C72.4408 84.5 82.7896 75.1065 84.3086 63.0626L83.3164 62.9374C81.8595 74.4891 71.9291 83.5 60.0004 83.5L60.0004 84.5ZM42.6659 77.3716C47.7385 81.9369 53.2533 84.5 60.0004 84.5L60.0004 83.5C53.5476 83.5 48.2624 81.063 43.3349 76.6283L42.6659 77.3716ZM36.354 84.3535L43.354 77.3535L42.6469 76.6464L35.6469 83.6464L36.354 84.3535ZM35.5004 63L35.5004 84L36.5004 84L36.5004 63L35.5004 63ZM57.0004 62.5L36.0004 62.5L36.0004 63.5L57.0004 63.5L57.0004 62.5ZM48.354 72.3536L57.354 63.3536L56.6469 62.6464L47.6469 71.6464L48.354 72.3536ZM60.0004 77.5C55.05 77.5 51.0102 75.469 48.4115 71.7154L47.5893 72.2846C50.3907 76.331 54.7509 78.5 60.0004 78.5L60.0004 77.5ZM77.2557 62.9164C75.8568 71.1661 68.6301 77.5 60.0004 77.5L60.0004 78.5C69.1278 78.5 76.7628 71.8044 78.2416 63.0836L77.2557 62.9164ZM83.8125 62.5L77.7487 62.5L77.7487 63.5L83.8125 63.5L83.8125 62.5Z" fill="#5EF2C5" mask="url(#path-4-inside-2)"/>
</svg>