<svg width="100" height="100" viewBox="0 0 100 100" fill="none" xmlns="http://www.w3.org/2000/svg">
    <ellipse cx="25.1406" cy="25.1403" rx="12.0967" ry="12.0968" fill="white"/>
    <ellipse cx="75.0967" cy="25.0968" rx="12.0967" ry="12.0968" fill="white"/>
    <ellipse cx="25.1406" cy="74.8597" rx="12.0967" ry="12.0968" fill="white"/>
    <ellipse cx="74.8604" cy="74.8597" rx="12.0967" ry="12.0968" fill="white"/>
    <circle cx="50" cy="50" r="36" fill="#5EF2C5"/>
    <path d="M47.043 34.6H55.275C55.583 34.6 55.849 34.712 56.073 34.936C56.297 35.16 56.409 35.426 56.409 35.734V62.866C56.409 63.174 56.297 63.44 56.073 63.664C55.849 63.888 55.583 64 55.275 64H47.043C46.735 64 46.469 63.888 46.245 63.664C46.021 63.44 45.909 63.174 45.909 62.866V53.794H39.105V62.866C39.105 63.174 38.993 63.44 38.769 63.664C38.545 63.888 38.279 64 37.971 64H29.739C29.431 64 29.165 63.902 28.941 63.706C28.717 63.482 28.605 63.202 28.605 62.866V35.734C28.605 35.426 28.717 35.16 28.941 34.936C29.165 34.712 29.431 34.6 29.739 34.6H37.971C38.279 34.6 38.545 34.712 38.769 34.936C38.993 35.16 39.105 35.426 39.105 35.734V44.554H45.909V35.734C45.909 35.426 46.021 35.16 46.245 34.936C46.469 34.712 46.735 34.6 47.043 34.6ZM69.8907 64H62.3727C62.0647 64 61.7987 63.888 61.5747 63.664C61.3507 63.44 61.2387 63.174 61.2387 62.866V43.294C61.2387 42.986 61.3507 42.72 61.5747 42.496C61.7987 42.272 62.0647 42.16 62.3727 42.16H69.8907C70.1987 42.16 70.4647 42.272 70.6887 42.496C70.9127 42.72 71.0247 42.986 71.0247 43.294V62.866C71.0247 63.174 70.9127 63.44 70.6887 63.664C70.4647 63.888 70.1987 64 69.8907 64ZM70.8147 34.054V39.136C70.8147 39.444 70.7027 39.71 70.4787 39.934C70.2547 40.158 69.9887 40.27 69.6807 40.27H62.5827C62.2747 40.27 62.0087 40.158 61.7847 39.934C61.5607 39.71 61.4487 39.444 61.4487 39.136V34.054C61.4487 33.746 61.5607 33.48 61.7847 33.256C62.0087 33.032 62.2747 32.92 62.5827 32.92H69.6807C69.9887 32.92 70.2547 33.032 70.4787 33.256C70.7027 33.48 70.8147 33.746 70.8147 34.054Z" fill="#508B93"/>
</svg>
